<?xml version="1.0" encoding="utf-8"?>
<!-- Generator: Adobe Illustrator 24.1.1, SVG Export Plug-In . SVG Version: 6.00 Build 0)  -->
<svg version="1.1" id="Layer_1" xmlns="http://www.w3.org/2000/svg" xmlns:xlink="http://www.w3.org/1999/xlink" x="0px" y="0px"
	 viewBox="0 0 512 512" style="enable-background:new 0 0 512 512;" xml:space="preserve">
<style type="text/css">
	.st0{fill:#e3b04b;}
	.st1{fill:#FFFFFF;}
	.st2{fill:#F0F1F1;}
	.st3{fill:#F4D0A1;}
	.st4{fill:#EDBC7C;}
	.st5{fill:#F79392;}
	.st6{fill:#E2E4E5;}
	.st7{fill:#17B198;}
	.st8{fill:#FACB1B;}
	.st9{fill:#FBE158;}
	.st10{fill:#3E3E3F;}
	.st11{fill:#0484AB;}
	.st12{fill:#21B2D1;}
	.st13{fill:#F7B4B4;}
</style>
<g id="XMLID_1_">
	<circle id="XMLID_3_" class="st0" cx="256" cy="256" r="256"/>
	<path id="XMLID_4_" class="st1" d="M107.1,125.2c0-10.2,7.9-18.1,18.1-18.1H256l74.8,62.2v217.4c0,10.2-7.9,18.1-18.1,18.1H125.2
		c-10.2,0-18.1-7.9-18.1-18.1V125.2z"/>
	<path id="XMLID_5_" class="st2" d="M256,107.1V152c0,10.2,7.9,18.1,18.1,18.1h56.7L256,107.1z"/>
	<polygon id="XMLID_6_" class="st3" points="358.4,193 382,144.1 404.9,193 404.9,372.6 358.4,372.6 	"/>
	<polygon id="XMLID_7_" class="st4" points="404.9,219 404.9,193 382,144.1 382,219 	"/>
	<path id="XMLID_8_" class="st5" d="M404.9,390.7c0,7.9-6.3,14.2-14.2,14.2h-18.9c-7.9,0-14.2-6.3-14.2-14.2V382h46.5v8.7H404.9z"/>
	<path id="XMLID_9_" class="st6" d="M288.3,209.5c0,2.4-2.4,4.7-4.7,4.7h-70.1c-2.4,0-4.7-2.4-4.7-4.7s2.4-4.7,4.7-4.7h70.1
		C286.7,204.8,288.3,207.2,288.3,209.5z"/>
	<path id="XMLID_10_" class="st6" d="M260.7,232.4c0,2.4-2.4,4.7-4.7,4.7h-41.7c-2.4,0-4.7-2.4-4.7-4.7s2.4-4.7,4.7-4.7H256
		C258.4,228.4,260.7,230,260.7,232.4z"/>
	<path id="XMLID_11_" class="st6" d="M288.3,270.2c0,2.4-2.4,4.7-4.7,4.7h-70.1c-2.4,0-4.7-2.4-4.7-4.7s2.4-4.7,4.7-4.7h70.1
		C286.7,265.5,288.3,267,288.3,270.2z"/>
	<path id="XMLID_12_" class="st6" d="M260.7,293c0,2.4-2.4,4.7-4.7,4.7h-41.7c-2.4,0-4.7-2.4-4.7-4.7s2.4-4.7,4.7-4.7H256
		C258.4,288.3,260.7,290.7,260.7,293z"/>
	<path id="XMLID_13_" class="st6" d="M288.3,330.8c0,2.4-2.4,4.7-4.7,4.7h-70.1c-2.4,0-4.7-2.4-4.7-4.7s2.4-4.7,4.7-4.7h70.1
		C286.7,326.1,288.3,327.7,288.3,330.8z"/>
	<path id="XMLID_14_" class="st6" d="M260.7,353.7c0,2.4-2.4,4.7-4.7,4.7h-41.7c-2.4,0-4.7-2.4-4.7-4.7s2.4-4.7,4.7-4.7H256
		C258.4,348.9,260.7,351.3,260.7,353.7z"/>
	<path id="XMLID_15_" class="st7" d="M163.1,241.8l-17.3-17.3c-1.6-1.6-1.6-4.7,0-6.3c1.6-1.6,4.7-1.6,6.3,0l10.2,10.2l19.7-23.6
		c1.6-2.4,4.7-2.4,6.3-0.8c2.4,1.6,2.4,4.7,0.8,6.3L163.1,241.8z"/>
	<path id="XMLID_16_" class="st7" d="M163.1,302.5l-17.3-17.3c-1.6-1.6-1.6-4.7,0-6.3c1.6-1.6,4.7-1.6,6.3,0l10.2,10.2l19.7-23.6
		c1.6-2.4,4.7-2.4,6.3-0.8c2.4,1.6,2.4,4.7,0.8,6.3L163.1,302.5z"/>
	<path id="XMLID_17_" class="st7" d="M163.1,363.1l-17.3-17.3c-1.6-1.6-1.6-4.7,0-6.3c1.6-1.6,4.7-1.6,6.3,0l10.2,10.2l19.7-23.6
		c1.6-2.4,4.7-2.4,6.3-0.8c2.4,1.6,2.4,4.7,0.8,6.3L163.1,363.1z"/>
	<rect id="XMLID_18_" x="358.4" y="367.9" class="st8" width="46.5" height="14.2"/>
	<rect id="XMLID_19_" x="358.4" y="372.6" class="st9" width="23.6" height="9.5"/>
	<path id="XMLID_20_" class="st10" d="M382,144.1l-8.7,18.1c2.4,3.2,5.5,5.5,8.7,5.5c3.2,0,6.3-1.6,8.7-5.5L382,144.1z"/>
	<path id="XMLID_21_" class="st11" d="M393.1,200.1c-5.5,0-10.2-3.9-11-8.7c0-0.8-0.8-0.8-0.8,0c-1.6,4.7-5.5,8.7-11,8.7
		c-4.7,0-9.5-3.2-11-7.1c0-0.8-0.8,0-0.8,0v179.6h46.5V193c0-0.8-0.8-0.8-0.8,0C402.5,196.9,398.6,200.1,393.1,200.1z"/>
	<path id="XMLID_22_" class="st12" d="M358.4,372.6V193c0-0.8,0.8-0.8,0.8,0c1.6,3.9,5.5,7.1,11,7.1s10.2-3.9,11-8.7l0,0v181.2
		C381.2,372.6,358.4,372.6,358.4,372.6z"/>
	<path id="XMLID_23_" class="st13" d="M358.4,382v9.5c0,7.9,6.3,14.2,14.2,14.2h9.5V382H358.4z"/>
</g>
</svg>
